<?xml version="1.0" encoding="iso-8859-1"?>
<!-- Generator: Adobe Illustrator 19.0.0, SVG Export Plug-In . SVG Version: 6.00 Build 0)  -->
<svg version="1.1" id="Layer_1" xmlns="http://www.w3.org/2000/svg" xmlns:xlink="http://www.w3.org/1999/xlink" x="0px" y="0px"
	 viewBox="0 0 511.999 511.999" style="enable-background:new 0 0 511.999 511.999;" xml:space="preserve">
<g>
	<g>
		<path d="M307.178,299.937H104.922c-13.056,0-20.857,14.625-13.553,25.468c25.795,38.302,68.666,61.169,114.681,61.169
			s88.889-22.867,114.68-61.169C328.024,314.575,320.253,299.937,307.178,299.937z M206.051,353.893
			c-23.225,0-45.405-7.639-63.467-21.275h126.935C251.456,346.255,229.276,353.893,206.051,353.893z" fill="currentColor"/>
	</g>
</g>
<g>
	<g>
		<path d="M495.66,144.804h-83.557v-5.051c0-45.327-36.877-82.204-82.205-82.204c-45.327,0-82.204,36.877-82.204,82.204v92.306
			H16.34c-9.024,0-16.34,7.316-16.34,16.34c0,113.617,92.435,206.052,206.051,206.052S412.101,362.016,412.101,248.4v-19.444h32.087
			c37.39,0,67.811-30.42,67.811-67.812C512,152.12,504.684,144.804,495.66,144.804z M206.051,421.77
			c-90.088,0-164.348-69.063-172.606-157.029h230.588h114.625C370.399,352.705,296.14,421.77,206.051,421.77z M379.421,232.059
			h-99.048v-92.306c0-27.307,22.216-49.523,49.523-49.523s49.525,22.216,49.525,49.523
			C379.421,150.781,379.421,220.996,379.421,232.059z M444.189,196.275h-32.087v-18.79h63.181
			C469.393,188.649,457.665,196.275,444.189,196.275z" fill="currentColor"/>
	</g>
</g>
<g>
	<g>
		<circle cx="338.933" cy="134.96" r="21.616" fill="currentColor"/>
	</g>
</g>
<g>
</g>
<g>
</g>
<g>
</g>
<g>
</g>
<g>
</g>
<g>
</g>
<g>
</g>
<g>
</g>
<g>
</g>
<g>
</g>
<g>
</g>
<g>
</g>
<g>
</g>
<g>
</g>
<g>
</g>
</svg>
